<?xml version="1.0" encoding="utf-8"?>
<!-- Generator: Adobe Illustrator 24.1.2, SVG Export Plug-In . SVG Version: 6.00 Build 0)  -->
<svg version="1.1" id="katman_1" xmlns="http://www.w3.org/2000/svg" xmlns:xlink="http://www.w3.org/1999/xlink" x="0px" y="0px"
	 viewBox="0 0 419 110.56" style="enable-background:new 0 0 419 110.56;" xml:space="preserve">
<style type="text/css">
	.st0{fill:#FFFFFF;}
	.st1{fill-rule:evenodd;clip-rule:evenodd;fill:#FFFFFF;}
</style>
<g>
	<path class="st0" d="M402.79,7.11h1.58c0.76,0,1.27-0.11,1.55-0.34c0.27-0.22,0.41-0.52,0.41-0.89c0-0.24-0.07-0.45-0.2-0.64
		c-0.13-0.19-0.32-0.33-0.55-0.42c-0.24-0.09-0.67-0.14-1.31-0.14h-1.48V7.11z M401.49,11.65V3.58h2.78c0.95,0,1.64,0.07,2.06,0.22
		c0.43,0.15,0.76,0.41,1.02,0.78c0.25,0.37,0.38,0.76,0.38,1.18c0,0.59-0.21,1.1-0.63,1.54c-0.42,0.44-0.98,0.68-1.68,0.74
		c0.29,0.12,0.52,0.26,0.69,0.43c0.33,0.32,0.72,0.85,1.19,1.6l0.98,1.58h-1.58l-0.72-1.27c-0.56-1-1.02-1.63-1.37-1.88
		c-0.24-0.18-0.58-0.27-1.04-0.27h-0.77v3.42H401.49z M404.78,1.24c-1.06,0-2.08,0.27-3.08,0.81c-1,0.54-1.78,1.31-2.34,2.32
		c-0.56,1-0.85,2.05-0.85,3.14c0,1.08,0.28,2.12,0.83,3.11c0.55,0.99,1.33,1.77,2.32,2.32c0.99,0.55,2.03,0.83,3.12,0.83
		c1.08,0,2.12-0.28,3.11-0.83c0.99-0.55,1.77-1.33,2.32-2.32c0.55-0.99,0.82-2.03,0.82-3.11c0-1.09-0.28-2.13-0.84-3.14
		c-0.56-1-1.34-1.78-2.34-2.32S405.83,1.24,404.78,1.24z M404.78,0c1.26,0,2.49,0.32,3.69,0.97c1.2,0.64,2.14,1.57,2.8,2.77
		c0.67,1.2,1,2.46,1,3.76c0,1.29-0.33,2.54-0.99,3.73c-0.66,1.19-1.58,2.12-2.77,2.78c-1.19,0.66-2.44,0.99-3.73,0.99
		c-1.3,0-2.55-0.33-3.74-0.99c-1.19-0.66-2.12-1.59-2.78-2.78c-0.66-1.19-0.99-2.44-0.99-3.73c0-1.3,0.34-2.56,1.01-3.76
		c0.68-1.2,1.61-2.13,2.81-2.77C402.29,0.32,403.52,0,404.78,0z"/>
	<path class="st0" d="M378.16,66.54c1.68-0.69,3.37-0.79,5.11-0.3c1.75,0.59,3.03,1.65,3.86,3.2c0.79,1.48,0.86,3.04,0.2,4.65
		c-0.63,1.52-1.81,2.67-3.46,3.36c-4.72,2.01-10.49,3-17.32,3c-10.42,0-19.33-3.66-26.65-11.02c-7.16-7.16-10.75-15.74-10.75-25.7
		V41.2c0-9.96,3.6-18.54,10.75-25.7c7.32-7.32,16.23-11.02,26.65-11.02h2.51c10.46,0,19.33,3.69,26.69,11.02
		c7.16,7.16,10.72,15.74,10.72,25.7c0,1.68-0.63,3.1-1.91,4.26c-1.32,1.25-2.87,1.85-4.75,1.85h-41.07c-1.88,0-3.46-0.59-4.75-1.85
		c-1.29-1.15-1.91-2.57-1.91-4.26c0-1.65,0.63-3.1,1.91-4.32c1.29-1.15,2.87-1.75,4.75-1.75h33.52c-1.09-4.45-3.23-8.28-6.47-11.51
		c-4.68-4.62-10.26-6.96-16.73-6.96h-2.51c-6.43,0-11.97,2.34-16.63,6.96c-4.82,4.85-7.22,10.72-7.22,17.58v2.54
		c0,6.89,2.41,12.73,7.22,17.58c4.65,4.62,10.19,6.96,16.63,6.96C371.39,68.29,375.25,67.69,378.16,66.54 M324.54,4.49
		c1.88,0,3.46,0.59,4.75,1.75c1.35,1.22,2.01,2.67,2.01,4.35c0,1.68-0.66,3.1-2.01,4.26c-1.29,1.22-2.87,1.81-4.75,1.81
		c-6.43,0-11.98,2.34-16.63,6.96c-4.82,4.85-7.26,10.72-7.26,17.58v33.15c0,1.68-0.66,3.13-2.01,4.35
		c-1.29,1.15-2.87,1.75-4.75,1.75c-1.85,0-3.46-0.59-4.82-1.75c-1.29-1.22-1.95-2.67-1.95-4.35V41.2c0-9.96,3.6-18.54,10.72-25.7
		C305.21,8.18,314.12,4.49,324.54,4.49z M239.13,16.66c-6.43,0-11.97,2.34-16.63,6.96c-4.82,4.85-7.22,10.72-7.22,17.58v2.54
		c0,6.89,2.41,12.73,7.22,17.58c4.65,4.62,10.19,6.96,16.63,6.96h2.51c6.47,0,12.04-2.34,16.73-6.96
		c4.85-4.85,7.26-10.69,7.26-17.58V41.2c0-6.86-2.41-12.73-7.26-17.58c-4.68-4.62-10.26-6.96-16.73-6.96H239.13z M241.64,4.49
		c10.46,0,19.33,3.69,26.69,11.02c7.16,7.16,10.72,15.74,10.72,25.7v2.54c0,9.96-3.56,18.54-10.72,25.7
		c-7.36,7.36-16.23,11.02-26.69,11.02h-2.51c-10.42,0-19.33-3.66-26.65-11.02c-7.16-7.16-10.75-15.74-10.75-25.7V41.2
		c0-9.96,3.6-18.54,10.75-25.7c7.32-7.32,16.23-11.02,26.65-11.02H241.64z M193.66,74.36c0,1.68-0.66,3.13-1.95,4.35
		c-1.35,1.15-2.97,1.75-4.82,1.75c-1.81,0-3.4-0.59-4.75-1.75c-1.29-1.22-1.91-2.67-1.91-4.35V41.2c0-7.13-1.95-13.2-5.81-18.14
		c-3.3-4.26-6.99-6.4-11.12-6.4h-1.95c-4.19,0-7.92,2.14-11.18,6.4c-3.83,4.88-5.71,10.95-5.71,18.14v33.15
		c0,1.68-0.69,3.13-2.05,4.35c-1.29,1.15-2.87,1.75-4.72,1.75c-1.88,0-3.46-0.59-4.75-1.75c-1.35-1.22-2.01-2.67-2.01-4.35V41.2
		c0-7.19-1.91-13.26-5.71-18.14c-3.3-4.26-6.99-6.4-11.12-6.4h-2.05c-4.12,0-7.82,2.14-11.12,6.4c-3.86,4.95-5.81,11.02-5.81,18.14
		v33.15c0,1.68-0.63,3.13-1.91,4.35c-1.29,1.15-2.87,1.75-4.75,1.75c-1.85,0-3.46-0.59-4.82-1.75c-1.29-1.22-1.95-2.67-1.95-4.35
		V41.2c0-9.7,2.71-18.08,8.12-25.1c6-7.75,13.43-11.61,22.23-11.61h2.05c8.81,0,16.23,3.86,22.23,11.61
		c0.43,0.63,0.89,1.29,1.35,1.91c0.43-0.63,0.89-1.29,1.35-1.91c5.97-7.75,13.43-11.61,22.3-11.61h1.95
		c8.84,0,16.23,3.86,22.23,11.61c5.41,7.03,8.12,15.41,8.12,25.1V74.36z"/>
	<rect x="29.1" y="51.25" class="st1" width="15.59" height="21.39"/>
	<rect x="6.72" y="34.68" class="st1" width="21.39" height="15.59"/>
	<rect x="29.1" y="12.31" class="st1" width="15.59" height="21.39"/>
	<rect x="45.67" y="34.68" class="st1" width="21.39" height="15.59"/>
	<path class="st0" d="M244.58,103.51v-3.08l3.28-5.6h-2.54l-1.91,3.37l-1.91-3.37h-2.54l3.27,5.6v3.08H244.58z M395.34,103.51v-7.27
		h2.35v-1.41h-6.26v1.41h2.35v7.27H395.34z M383.8,96.96l1.44,3.54h-2.89L383.8,96.96z M381.16,103.51l0.71-1.73h3.86l0.71,1.73
		h1.64l-3.62-8.68h-1.32l-3.62,8.68H381.16z M371.17,96.96l1.44,3.54h-2.89L371.17,96.96z M368.53,103.51l0.71-1.73h3.86l0.71,1.73
		h1.64l-3.62-8.68h-1.32l-3.62,8.68H368.53z M356.14,101.68c0.46,1.08,1.43,1.78,2.74,1.94l-0.35,0.83c0.55,0,0.8,0.11,0.8,0.47
		c0,0.25-0.2,0.41-0.49,0.41c-0.2,0-0.41-0.06-0.62-0.19l-0.32,0.66c0.29,0.21,0.65,0.31,1.07,0.31c0.88,0,1.42-0.39,1.42-1.13
		c0-0.55-0.36-0.91-0.82-0.91l0.19-0.44c1.79-0.09,2.76-1.1,2.76-2.55c0-0.65-0.19-1.17-0.55-1.56c-0.36-0.39-0.95-0.75-1.77-1.08
		l-0.51-0.2l-0.45-0.17c-0.16-0.09-0.51-0.24-0.65-0.34c-0.21-0.21-0.36-0.39-0.36-0.75c0-0.54,0.5-0.92,1.18-0.92
		c0.7,0,1.21,0.26,1.54,0.77l1.11-0.76c-0.6-0.93-1.49-1.41-2.68-1.41c-0.76,0-1.39,0.21-1.92,0.65c-0.51,0.44-0.77,1-0.77,1.69
		c0,0.73,0.24,1.29,0.73,1.71c0.5,0.4,0.96,0.62,1.76,0.92c0.65,0.24,0.91,0.35,1.27,0.6c0.36,0.24,0.5,0.5,0.5,0.88
		c0,0.56-0.39,1.13-1.47,1.13c-1.01,0-1.73-0.44-2.18-1.32L356.14,101.68z M345.06,103.51v-6.14l4.69,6.14h1.27v-8.68h-1.51v6.03
		l-4.59-6.03h-1.37v8.68H345.06z M325.41,100.79v-1.37h-4.17v1.37H325.41z M303.41,103.51v-5.86l2.98,4.57l2.95-4.58v5.88h1.47
		v-8.68h-1.32l-3.1,4.87l-3.11-4.87h-1.33v8.68H303.41z M296.06,103.51v-8.68h-1.56v8.68H296.06z M284.2,96.23h1.78
		c0.75,0,1.31,0.57,1.31,1.37c0,0.83-0.59,1.42-1.43,1.42h-1.66V96.23z M284.2,103.51v-3.09h1.52h0.02l1.86,3.09h1.76l-2.1-3.46
		c0.95-0.4,1.58-1.33,1.58-2.47c0-0.78-0.27-1.43-0.82-1.95c-0.55-0.54-1.21-0.8-1.99-0.8h-3.37v8.68H284.2z M276.77,103.51v-8.68
		h-1.56v8.68H276.77z M267.71,103.51v-7.27h2.35v-1.41h-6.26v1.41h2.35v7.27H267.71z M256.17,96.96l1.44,3.54h-2.89L256.17,96.96z
		 M253.53,103.51l0.71-1.73h3.86l0.71,1.73h1.64l-3.62-8.68h-1.32l-3.62,8.68H253.53z M229.48,100.79v-1.37h-4.17v1.37H229.48z
		 M216.12,103.51v-1.41h-3.45v-7.27h-1.56v8.68H216.12z M198.33,100.18c0,1.11,0.32,1.97,0.98,2.57c0.66,0.6,1.51,0.9,2.54,0.9
		c1.03,0,1.87-0.3,2.53-0.9c0.66-0.6,0.98-1.46,0.98-2.57v-5.35h-1.56v5.19c0,1.49-0.75,2.22-1.95,2.22c-1.23,0-1.97-0.72-1.97-2.22
		v-5.19h-1.56V100.18z M187.99,103.51v-2.54l1.1-1.21l2.7,3.75h1.82l-3.47-4.86l3.37-3.82h-1.84l-3.67,4.16v-4.16h-1.56v8.68H187.99
		z M174.66,103.51v-6.14l4.69,6.14h1.27v-8.68h-1.51v6.03l-4.59-6.03h-1.37v8.68H174.66z M167.68,103.51v-1.41h-4.06v-2.39h3.72
		V98.3h-3.72v-2.07h3.97v-1.41h-5.53v8.68H167.68z M148.84,103.51v-5.86l2.98,4.57l2.95-4.58v5.88h1.47v-8.68h-1.32l-3.1,4.87
		l-3.11-4.87h-1.33v8.68H148.84z M141.5,103.51v-8.68h-1.56v8.68H141.5z M140.71,94.15c0.45,0,0.81-0.34,0.81-0.78
		c0-0.44-0.36-0.77-0.81-0.77c-0.44,0-0.8,0.34-0.8,0.77C139.92,93.82,140.28,94.15,140.71,94.15z M129.63,96.23h1.78
		c0.75,0,1.31,0.57,1.31,1.37c0,0.83-0.59,1.42-1.43,1.42h-1.66V96.23z M129.63,103.51v-3.09h1.52h0.02l1.86,3.09h1.76l-2.1-3.46
		c0.95-0.4,1.58-1.33,1.58-2.47c0-0.78-0.27-1.43-0.82-1.95c-0.55-0.54-1.21-0.8-1.99-0.8h-3.37v8.68H129.63z M119.87,103.51v-3.36
		l3.13-5.32h-1.67l-2.22,3.82l-2.23-3.82h-1.68l3.13,5.32v3.36H119.87z M107.91,96.96l1.44,3.54h-2.89L107.91,96.96z M105.27,103.51
		l0.71-1.73h3.86l0.71,1.73h1.64l-3.62-8.68h-1.32l-3.62,8.68H105.27z M338.01,103.51v-8.68h-2.37v8.68H338.01z M337.57,94.08
		c0.41-0.4,0.41-1.02,0-1.42c-0.41-0.4-1.08-0.4-1.49,0c-0.41,0.4-0.41,1.02,0,1.42C336.49,94.48,337.16,94.48,337.57,94.08z
		 M95.23,94.7c-1.32,0-2.44,0.42-3.36,1.28c-0.91,0.85-1.37,1.91-1.37,3.19c0,1.28,0.46,2.34,1.37,3.19
		c0.92,0.85,2.04,1.27,3.36,1.27c1.61,0,3.04-0.77,3.85-1.93v-3.49h-4.28v1.97h2.24v0.59c-0.44,0.5-1.03,0.75-1.81,0.75
		c-0.66,0-1.22-0.22-1.68-0.66c-0.46-0.45-0.68-1.01-0.68-1.68c0-0.67,0.22-1.23,0.68-1.68c0.46-0.45,1.02-0.67,1.68-0.67
		c1.02,0,1.91,0.27,2.66,0.82V95.4C97.15,94.94,96.26,94.7,95.23,94.7z"/>
</g>
</svg>
